<svg width="14" height="18" viewBox="0 0 14 18" fill="none" xmlns="http://www.w3.org/2000/svg">
<path d="M12.9078 4.48C12.8438 4.2398 12.7136 3.984 12.6174 3.76C11.4656 0.992 8.94898 0 6.91698 0C4.19678 0 1.20078 1.824 0.800781 5.5838V6.352C0.800781 6.384 0.811781 6.672 0.827581 6.816C1.05178 8.6078 2.46558 10.512 3.52158 12.3038C4.65758 14.2236 5.83638 16.112 7.00458 17.9996C7.72458 16.7678 8.44218 15.5198 9.14598 14.3198C9.33778 13.9676 9.56018 13.6156 9.75218 13.2796C9.88018 13.0558 10.1246 12.832 10.2364 12.6238C11.3722 10.5444 13.2008 8.448 13.2008 6.384V5.536C13.2008 5.3122 12.9234 4.5282 12.9078 4.48ZM6.96678 8.336C6.16718 8.336 5.29198 7.9362 4.85998 6.832C4.79558 6.6562 4.80078 6.304 4.80078 6.2718V5.7758C4.80078 4.3682 5.99598 3.728 7.03578 3.728C8.31578 3.728 9.30598 4.7522 9.30598 6.0322C9.30598 7.3122 8.24678 8.336 6.96678 8.336Z" fill="#04C4D9"/>
</svg>
