<svg width="174" height="43" viewBox="0 0 174 43" fill="none" xmlns="http://www.w3.org/2000/svg">
<path d="M12.6562 34H18.4453L30.4922 0.179688H24.8438L15.6094 28.1641H15.4922L6.25781 0.179688H0.609375L12.6562 34ZM67.5591 42.2266C72.3872 42.2266 74.9653 40.2578 76.7934 35.1484L85.9809 9.34375H80.6372L74.4263 29.4062H74.2622L68.0513 9.34375H62.5669L71.5434 34.0234L71.1216 35.1953C70.2778 37.5859 68.9653 38.2188 66.5747 38.2188C65.895 38.2188 65.3091 38.125 64.9106 38.0312V41.9922C65.52 42.1094 66.5747 42.2266 67.5591 42.2266ZM99.5006 34.4453C102.758 34.4453 105.618 32.7578 107.048 30.1094H107.141V34H112.227V17.0078C112.227 12.0625 108.407 8.875 102.383 8.875C96.3131 8.875 92.6334 12.1328 92.2819 16.375L92.2584 16.6328H97.0397L97.0866 16.4219C97.5084 14.4531 99.3131 13.0703 102.243 13.0703C105.383 13.0703 107.141 14.7109 107.141 17.4297V19.2812L100.438 19.6797C94.6022 20.0312 91.2741 22.6562 91.2741 26.9453V26.9922C91.2741 31.4219 94.5788 34.4453 99.5006 34.4453ZM96.3834 26.875V26.8281C96.3834 24.7422 98.0709 23.4062 101.118 23.2188L107.141 22.8438V24.7656C107.141 27.9766 104.446 30.3906 100.883 30.3906C98.1647 30.3906 96.3834 29.0312 96.3834 26.875ZM131.794 42.6953C138.755 42.6953 143.114 38.9453 143.114 33.3203V9.34375H138.028V13.5391H137.911C136.458 10.75 133.739 8.875 130.27 8.875C124.012 8.875 119.887 13.7266 119.887 21.4609V21.4844C119.887 29.1719 123.966 34.0234 130.153 34.0234C133.692 34.0234 136.505 32.3125 137.911 29.6406H138.028V33.0156C138.028 36.4609 135.802 38.6172 131.77 38.6172C128.606 38.6172 126.473 37.5391 125.794 35.9688L125.7 35.7812H120.684L120.708 35.9922C121.458 39.7656 125.466 42.6953 131.794 42.6953ZM131.583 29.8984C127.575 29.8984 125.067 26.7109 125.067 21.5547V21.5312C125.067 16.4453 127.575 13.2109 131.583 13.2109C135.427 13.2109 138.028 16.4688 138.028 21.5312V21.5547C138.028 26.6406 135.45 29.8984 131.583 29.8984ZM162.493 34.4922C168.47 34.4922 172.267 30.9297 173.063 27.0156L173.11 26.7578H168.306L168.235 26.9453C167.602 28.7969 165.61 30.3438 162.61 30.3438C158.579 30.3438 156.024 27.625 155.931 22.9609H173.392V21.25C173.392 13.8438 169.149 8.875 162.235 8.875C155.321 8.875 150.868 14.0312 150.868 21.7422V21.7656C150.868 29.5469 155.251 34.4922 162.493 34.4922ZM162.259 13.0234C165.563 13.0234 167.954 15.1094 168.376 19.375H156.001C156.446 15.25 158.977 13.0234 162.259 13.0234Z" fill="#00A0B1"/>
</svg>
